<svg version="1.1" xmlns="http://www.w3.org/2000/svg" viewBox="0 0 1286.0928005946755 454.00338517250174" width="1286.0928005946755" height="454.00338517250174">
  <!-- svg-source:excalidraw -->
  
  <defs>
    <style class="style-fonts">
      @font-face {
        font-family: "Virgil";
        src: url("https://excalidraw.com/Virgil.woff2");
      }
      @font-face {
        font-family: "Cascadia";
        src: url("https://excalidraw.com/Cascadia.woff2");
      }
    </style>
  </defs>
  <rect x="0" y="0" width="1286.0928005946755" height="454.00338517250174" fill="#ffffff"></rect><g stroke-linecap="round" transform="translate(226.33111356149425 95.31461333306186) rotate(0 116.875 116.875)"><path d="M96.37 2.12 C108.34 -2.16, 123.93 -1.31, 136.96 0.96 C149.98 3.23, 163.05 9.06, 174.51 15.73 C185.97 22.39, 196.93 30.73, 205.71 40.95 C214.49 51.17, 222.46 64.44, 227.18 77.04 C231.9 89.64, 234.17 103.3, 234.01 116.58 C233.84 129.85, 230.71 144.2, 226.19 156.69 C221.67 169.17, 215.17 181.18, 206.86 191.5 C198.55 201.82, 187.82 211.94, 176.31 218.59 C164.8 225.24, 150.98 229.26, 137.82 231.4 C124.65 233.55, 110.46 233.62, 97.32 231.46 C84.18 229.31, 70.74 225.02, 58.97 218.48 C47.21 211.94, 35.25 202.61, 26.72 192.22 C18.2 181.84, 12.19 168.71, 7.83 156.18 C3.48 143.65, 0.87 130.39, 0.58 117.06 C0.28 103.72, 1.45 88.56, 6.07 76.17 C10.68 63.77, 19.57 52.88, 28.27 42.68 C36.96 32.48, 46.23 21.86, 58.24 14.97 C70.25 8.07, 92.52 3.18, 100.33 1.3 C108.14 -0.58, 104.77 1.86, 105.08 3.7 M117.81 1.5 C130.42 -0.54, 144.78 2.97, 157.11 7.24 C169.45 11.5, 181.81 18.7, 191.82 27.08 C201.83 35.46, 210.23 45.92, 217.16 57.5 C224.08 69.09, 231.07 83.57, 233.37 96.59 C235.66 109.61, 233.56 122.58, 230.92 135.64 C228.28 148.7, 224.18 163.13, 217.53 174.95 C210.87 186.77, 201.1 197.87, 190.96 206.54 C180.81 215.2, 168.79 222.22, 156.66 226.93 C144.53 231.65, 131.54 235.05, 118.17 234.8 C104.79 234.55, 89.29 230.22, 76.43 225.42 C63.58 220.62, 51.37 214.44, 41.05 205.99 C30.72 197.54, 20.75 185.93, 14.46 174.71 C8.18 163.48, 5.25 151.35, 3.31 138.66 C1.37 125.97, 0.97 112.1, 2.82 98.57 C4.67 85.03, 7.79 69, 14.41 57.42 C21.03 45.84, 32.16 37.34, 42.55 29.08 C52.93 20.82, 64.53 12.5, 76.7 7.88 C88.87 3.27, 109.12 2.42, 115.58 1.4 C122.03 0.39, 115.48 0.16, 115.42 1.79" stroke="#000000" stroke-width="1" fill="none"></path></g><g stroke-linecap="round"><g transform="translate(18.83111356149425 434.06461333306186) rotate(0 0.26608200921208436 -197.15751392394304)"><path d="M-0.66 -0.07 C-0.64 -65.74, 0.17 -328.75, 0.46 -394.25 M1.19 -1.15 C1.07 -66.64, -0.2 -327.32, -0.25 -392.97" stroke="#000000" stroke-width="1" fill="none"></path></g><g transform="translate(18.83111356149425 434.06461333306186) rotate(0 0.26608200921208436 -197.15751392394304)"><path d="M9.99 -364.05 C5.95 -372.24, 4.53 -382.14, -1.35 -391.72 M9.41 -364.68 C8.17 -372.52, 5.44 -378.63, -1.19 -393.82" stroke="#000000" stroke-width="1" fill="none"></path></g><g transform="translate(18.83111356149425 434.06461333306186) rotate(0 0.26608200921208436 -197.15751392394304)"><path d="M-10.53 -363.99 C-7.89 -372.08, -2.63 -382.01, -1.35 -391.72 M-11.11 -364.62 C-7.29 -372.54, -4.94 -378.66, -1.19 -393.82" stroke="#000000" stroke-width="1" fill="none"></path></g></g><mask></mask><g stroke-linecap="round"><g transform="translate(11.331113561494249 436.56461333306186) rotate(0 284.4671236945549 0.44268433841875776)"><path d="M0.26 -0.53 C95.12 -0.53, 474.87 0.51, 569.99 0.79 M-1.06 1.81 C93.56 1.4, 473.73 -0.53, 569.04 -0.93" stroke="#000000" stroke-width="1" fill="none"></path></g><g transform="translate(11.331113561494249 436.56461333306186) rotate(0 284.4671236945549 0.44268433841875776)"><path d="M540.02 9.45 C552.65 7.2, 563.79 3.63, 570.02 -0.44 M540.56 10.45 C550.07 5.57, 557.88 2.52, 569.09 -1.88" stroke="#000000" stroke-width="1" fill="none"></path></g><g transform="translate(11.331113561494249 436.56461333306186) rotate(0 284.4671236945549 0.44268433841875776)"><path d="M539.92 -11.07 C552.73 -5.64, 563.9 -1.55, 570.02 -0.44 M540.47 -10.07 C550.01 -8.51, 557.85 -5.11, 569.09 -1.88" stroke="#000000" stroke-width="1" fill="none"></path></g></g><mask></mask><g stroke-linecap="round"><g transform="translate(10.081113561494249 442.81461333306186) rotate(0 134.6656985303955 -35.880553562358934)"><path d="M0.9 1.19 C45.23 -11.1, 222.46 -60.98, 267.12 -72.95 M-0.08 0.77 C44.53 -11.49, 224.63 -59.83, 269.41 -72.02" stroke="#000000" stroke-width="1" fill="none"></path></g><g transform="translate(10.081113561494249 442.81461333306186) rotate(0 134.6656985303955 -35.880553562358934)"><path d="M246.86 -56.09 C252.55 -60.21, 266.1 -68.27, 270.29 -73.08 M244.06 -55.07 C255.43 -61.16, 264.69 -67.38, 269.88 -72.94" stroke="#000000" stroke-width="1" fill="none"></path></g><g transform="translate(10.081113561494249 442.81461333306186) rotate(0 134.6656985303955 -35.880553562358934)"><path d="M241.5 -75.9 C249.45 -72.21, 265.13 -72.41, 270.29 -73.08 M238.71 -74.88 C252.06 -73.16, 263.42 -71.59, 269.88 -72.94" stroke="#000000" stroke-width="1" fill="none"></path></g></g><mask></mask><g stroke-linecap="round"><g transform="translate(95.08111356149425 46.56461333306186) rotate(0 77.46728402863351 45.01602978182916)"><path d="M0 0.07 C25.92 15.2, 130.47 75.99, 156.4 90.97 M-1.47 -0.94 C24.2 13.81, 128.72 73.77, 155.27 89.1" stroke="#000000" stroke-width="1" fill="none"></path></g><g transform="translate(95.08111356149425 46.56461333306186) rotate(0 77.46728402863351 45.01602978182916)"><path d="M125.84 83.37 C137.49 83.9, 146.83 89.76, 156.3 90.67 M125.12 83.65 C135.88 85.78, 146.13 87.64, 156 88.32" stroke="#000000" stroke-width="1" fill="none"></path></g><g transform="translate(95.08111356149425 46.56461333306186) rotate(0 77.46728402863351 45.01602978182916)"><path d="M136.07 65.59 C143.96 72.71, 149.49 85.17, 156.3 90.67 M135.35 65.87 C142.52 74.26, 149.22 82.28, 156 88.32" stroke="#000000" stroke-width="1" fill="none"></path></g></g><mask></mask><g transform="translate(357.23982208755297 169.85935773859933) rotate(0 5.5399932861328125 12.5)"><text x="0" y="0" font-family="Virgil, Segoe UI Emoji" font-size="20px" fill="#000000" text-anchor="start" style="white-space: pre;" direction="ltr" dominant-baseline="text-before-edge">o</text></g><g stroke-linecap="round"><g transform="translate(331.33111356149425 199.06461333306186) rotate(0 10.895425708638527 10.993874450027942)"><path d="M-0.02 -0.7 C3.4 3.04, 17.35 18.94, 21.02 22.69 M-1.49 1.55 C2.26 4.94, 19.48 17.41, 23.29 20.99" stroke="#000000" stroke-width="1" fill="none"></path></g></g><mask></mask><g stroke-linecap="round"><g transform="translate(331.33111356149425 220.31461333306186) rotate(0 8.966475100815273 -9.594837377937516)"><path d="M-0.5 -0.95 C2.57 -4.04, 15.3 -15.55, 18.44 -18.41 M1.43 1.17 C4.32 -2.31, 14.68 -16.81, 17.32 -20.36" stroke="#000000" stroke-width="1" fill="none"></path></g></g><mask></mask><g transform="translate(112.7501410090747 10) rotate(0 5.649993896484375 12.5)"><text x="0" y="0" font-family="Virgil, Segoe UI Emoji" font-size="20px" fill="#000000" text-anchor="start" style="white-space: pre;" direction="ltr" dominant-baseline="text-before-edge">t</text></g><g transform="translate(205.85949639953787 84.30956587703574) rotate(0 5.2299957275390625 12.5)"><text x="0" y="0" font-family="Virgil, Segoe UI Emoji" font-size="20px" fill="#000000" text-anchor="start" style="white-space: pre;" direction="ltr" dominant-baseline="text-before-edge">v</text></g><g stroke-linecap="round"><g transform="translate(204.41831899960494 83.07042149022797) rotate(0 12.603191223955037 0.40012574228457254)"><path d="M-0.96 0.24 C3.22 0.17, 19.57 0.04, 24.02 -0.04 M0.74 -0.68 C5.36 -0.59, 22.06 1.2, 26.16 1.48" stroke="#000000" stroke-width="1" fill="none"></path></g><g transform="translate(204.41831899960494 83.07042149022797) rotate(0 12.603191223955037 0.40012574228457254)"><path d="M14.28 3.57 C16.59 4.81, 19.02 4.06, 25.18 0.47 M14.61 4.19 C18.59 3.41, 23.34 2.08, 26.66 2.06" stroke="#000000" stroke-width="1" fill="none"></path></g><g transform="translate(204.41831899960494 83.07042149022797) rotate(0 12.603191223955037 0.40012574228457254)"><path d="M15.04 -4.99 C17.21 -1.91, 19.48 -0.82, 25.18 0.47 M15.37 -4.36 C19.09 -1.98, 23.56 -0.13, 26.66 2.06" stroke="#000000" stroke-width="1" fill="none"></path></g></g><mask></mask><g stroke-linecap="round" transform="translate(894.461214263695 167.70672858705382) rotate(0 116.875 116.875)"><path d="M96.37 2.12 C108.34 -2.16, 123.93 -1.31, 136.96 0.96 C149.98 3.23, 163.05 9.06, 174.51 15.73 C185.97 22.39, 196.93 30.73, 205.71 40.95 C214.49 51.17, 222.46 64.44, 227.18 77.04 C231.9 89.64, 234.17 103.3, 234.01 116.58 C233.84 129.85, 230.71 144.2, 226.19 156.69 C221.67 169.17, 215.17 181.18, 206.86 191.5 C198.55 201.82, 187.82 211.94, 176.31 218.59 C164.8 225.24, 150.98 229.26, 137.82 231.4 C124.65 233.55, 110.46 233.62, 97.32 231.46 C84.18 229.31, 70.74 225.02, 58.97 218.48 C47.21 211.94, 35.25 202.61, 26.72 192.22 C18.2 181.84, 12.19 168.71, 7.83 156.18 C3.48 143.65, 0.87 130.39, 0.58 117.06 C0.28 103.72, 1.45 88.56, 6.07 76.17 C10.68 63.77, 19.57 52.88, 28.27 42.68 C36.96 32.48, 46.23 21.86, 58.24 14.97 C70.25 8.07, 92.52 3.18, 100.33 1.3 C108.14 -0.58, 104.77 1.86, 105.08 3.7 M117.81 1.5 C130.42 -0.54, 144.78 2.97, 157.11 7.24 C169.45 11.5, 181.81 18.7, 191.82 27.08 C201.83 35.46, 210.23 45.92, 217.16 57.5 C224.08 69.09, 231.07 83.57, 233.37 96.59 C235.66 109.61, 233.56 122.58, 230.92 135.64 C228.28 148.7, 224.18 163.13, 217.53 174.95 C210.87 186.77, 201.1 197.87, 190.96 206.54 C180.81 215.2, 168.79 222.22, 156.66 226.93 C144.53 231.65, 131.54 235.05, 118.17 234.8 C104.79 234.55, 89.29 230.22, 76.43 225.42 C63.58 220.62, 51.37 214.44, 41.05 205.99 C30.72 197.54, 20.75 185.93, 14.46 174.71 C8.18 163.48, 5.25 151.35, 3.31 138.66 C1.37 125.97, 0.97 112.1, 2.82 98.57 C4.67 85.03, 7.79 69, 14.41 57.42 C21.03 45.84, 32.16 37.34, 42.55 29.08 C52.93 20.82, 64.53 12.5, 76.7 7.88 C88.87 3.27, 109.12 2.42, 115.58 1.4 C122.03 0.39, 115.48 0.16, 115.42 1.79" stroke="#000000" stroke-width="1" fill="none"></path></g><g stroke-linecap="round"><g transform="translate(1015.4302899723905 285.8672022532729) rotate(0 0.2660820092121412 -107.51730211171133)"><path d="M-0.66 -0.07 C-0.64 -35.86, 0.17 -179.35, 0.46 -214.97 M1.19 -1.15 C1.07 -36.76, -0.2 -177.92, -0.25 -213.69" stroke="#000000" stroke-width="1" fill="none"></path></g><g transform="translate(1015.4302899723905 285.8672022532729) rotate(0 0.2660820092121412 -107.51730211171133)"><path d="M10.06 -184.8 C6 -192.98, 4.55 -202.87, -1.35 -212.44 M9.48 -185.43 C8.22 -193.25, 5.48 -199.36, -1.19 -214.53" stroke="#000000" stroke-width="1" fill="none"></path></g><g transform="translate(1015.4302899723905 285.8672022532729) rotate(0 0.2660820092121412 -107.51730211171133)"><path d="M-10.46 -184.68 C-7.84 -192.79, -2.6 -202.72, -1.35 -212.44 M-11.04 -185.31 C-7.23 -193.24, -4.9 -199.37, -1.19 -214.53" stroke="#000000" stroke-width="1" fill="none"></path></g></g><mask></mask><g stroke-linecap="round"><g transform="translate(1007.9302899723905 288.3672022532729) rotate(0 132.77595520394107 0.44268433841876664)"><path d="M0.26 -0.53 C44.55 -0.53, 222.05 0.51, 266.61 0.79 M-1.06 1.81 C42.99 1.4, 220.91 -0.53, 265.65 -0.93" stroke="#000000" stroke-width="1" fill="none"></path></g><g transform="translate(1007.9302899723905 288.3672022532729) rotate(0 132.77595520394107 0.44268433841876664)"><path d="M236.69 9.6 C249.31 7.3, 260.42 3.67, 266.64 -0.44 M237.24 10.6 C246.72 5.67, 254.52 2.58, 265.71 -1.88" stroke="#000000" stroke-width="1" fill="none"></path></g><g transform="translate(1007.9302899723905 288.3672022532729) rotate(0 132.77595520394107 0.44268433841876664)"><path d="M236.48 -10.92 C249.32 -5.55, 260.51 -1.51, 266.64 -0.44 M237.03 -9.92 C246.59 -8.41, 254.45 -5.06, 265.71 -1.88" stroke="#000000" stroke-width="1" fill="none"></path></g></g><mask></mask><g stroke-linecap="round"><g transform="translate(1006.6802899723905 294.6172022532729) rotate(0 134.6656985303954 -35.88055356235894)"><path d="M0.9 1.19 C45.23 -11.1, 222.46 -60.98, 267.12 -72.95 M-0.08 0.77 C44.53 -11.49, 224.63 -59.83, 269.41 -72.02" stroke="#000000" stroke-width="1" fill="none"></path></g><g transform="translate(1006.6802899723905 294.6172022532729) rotate(0 134.6656985303954 -35.88055356235894)"><path d="M246.86 -56.09 C252.55 -60.21, 266.1 -68.27, 270.29 -73.08 M244.06 -55.07 C255.43 -61.16, 264.69 -67.38, 269.88 -72.94" stroke="#000000" stroke-width="1" fill="none"></path></g><g transform="translate(1006.6802899723905 294.6172022532729) rotate(0 134.6656985303954 -35.88055356235894)"><path d="M241.5 -75.9 C249.45 -72.21, 265.13 -72.41, 270.29 -73.08 M238.71 -74.88 C252.06 -73.16, 263.42 -71.59, 269.88 -72.94" stroke="#000000" stroke-width="1" fill="none"></path></g></g><mask></mask><g stroke-linecap="round"><g transform="translate(763.2112142636947 118.95672858705382) rotate(0 77.46728402863357 45.01602978182916)"><path d="M0 0.07 C25.92 15.2, 130.47 75.99, 156.4 90.97 M-1.47 -0.94 C24.2 13.81, 128.72 73.77, 155.27 89.1" stroke="#000000" stroke-width="1" fill="none"></path></g><g transform="translate(763.2112142636947 118.95672858705382) rotate(0 77.46728402863357 45.01602978182916)"><path d="M125.84 83.37 C137.49 83.9, 146.83 89.76, 156.3 90.67 M125.12 83.65 C135.88 85.78, 146.13 87.64, 156 88.32" stroke="#000000" stroke-width="1" fill="none"></path></g><g transform="translate(763.2112142636947 118.95672858705382) rotate(0 77.46728402863357 45.01602978182916)"><path d="M136.07 65.59 C143.96 72.71, 149.49 85.17, 156.3 90.67 M135.35 65.87 C142.52 74.26, 149.22 82.28, 156 88.32" stroke="#000000" stroke-width="1" fill="none"></path></g></g><mask></mask><g stroke-linecap="round"><g transform="translate(999.4612142636952 271.4567285870538) rotate(0 10.895425708638527 10.993874450027942)"><path d="M-0.02 -0.7 C3.4 3.04, 17.35 18.94, 21.02 22.69 M-1.49 1.55 C2.26 4.94, 19.48 17.41, 23.29 20.99" stroke="#000000" stroke-width="1" fill="none"></path></g></g><mask></mask><g stroke-linecap="round"><g transform="translate(999.4612142636952 292.7067285870538) rotate(0 8.966475100815273 -9.59483737793751)"><path d="M-0.5 -0.95 C2.57 -4.04, 15.3 -15.55, 18.44 -18.41 M1.43 1.17 C4.32 -2.31, 14.68 -16.81, 17.32 -20.36" stroke="#000000" stroke-width="1" fill="none"></path></g></g><mask></mask><g transform="translate(780.8802417112752 82.39211525399196) rotate(0 15.299980163574219 12.5)"><text x="0" y="0" font-family="Virgil, Segoe UI Emoji" font-size="20px" fill="#000000" text-anchor="start" style="white-space: pre;" direction="ltr" dominant-baseline="text-before-edge">t-o</text></g><g transform="translate(873.9895971017384 156.70168113102773) rotate(0 5.2299957275390625 12.5)"><text x="0" y="0" font-family="Virgil, Segoe UI Emoji" font-size="20px" fill="#000000" text-anchor="start" style="white-space: pre;" direction="ltr" dominant-baseline="text-before-edge">v</text></g><g stroke-linecap="round"><g transform="translate(872.5484197018056 155.46253674421996) rotate(0 12.603191223955037 0.40012574228457964)"><path d="M-0.96 0.24 C3.22 0.17, 19.57 0.04, 24.02 -0.04 M0.74 -0.68 C5.36 -0.59, 22.06 1.2, 26.16 1.48" stroke="#000000" stroke-width="1" fill="none"></path></g><g transform="translate(872.5484197018056 155.46253674421996) rotate(0 12.603191223955037 0.40012574228457964)"><path d="M14.28 3.57 C16.59 4.81, 19.02 4.06, 25.18 0.47 M14.61 4.19 C18.59 3.41, 23.34 2.08, 26.66 2.06" stroke="#000000" stroke-width="1" fill="none"></path></g><g transform="translate(872.5484197018056 155.46253674421996) rotate(0 12.603191223955037 0.40012574228457964)"><path d="M15.04 -4.99 C17.21 -1.91, 19.48 -0.82, 25.18 0.47 M15.37 -4.36 C19.09 -1.98, 23.56 -0.13, 26.66 2.06" stroke="#000000" stroke-width="1" fill="none"></path></g></g><mask></mask></svg>